<svg width="35" height="39" viewBox="0 0 35 39" fill="none" xmlns="http://www.w3.org/2000/svg">
<rect width="34" height="37.5" transform="translate(0.5 0.779785)" fill="#0672CB"/>
<path d="M14.5421 20.3134C15.4152 20.3134 16.1231 19.6056 16.1231 18.7324C16.1231 17.8592 15.4152 17.1514 14.5421 17.1514C13.669 17.1514 12.9611 17.8592 12.9611 18.7324C12.9611 19.6056 13.669 20.3134 14.5421 20.3134Z" fill="white"/>
<path d="M9.79908 15.2645C10.6722 15.2645 11.3801 14.5567 11.3801 13.6835C11.3801 12.8104 10.6722 12.1025 9.79908 12.1025C8.92592 12.1025 8.21808 12.8104 8.21808 13.6835C8.21808 14.5567 8.92592 15.2645 9.79908 15.2645Z" fill="white"/>
<path d="M18.1121 26.6884C18.9852 26.6884 19.6931 25.9806 19.6931 25.1074C19.6931 24.2342 18.9852 23.5264 18.1121 23.5264C17.239 23.5264 16.5311 24.2342 16.5311 25.1074C16.5311 25.9806 17.239 26.6884 18.1121 26.6884Z" fill="white"/>
<path d="M24.2829 21.5883C25.1561 21.5883 25.864 20.8805 25.864 20.0073C25.864 19.1341 25.1561 18.4263 24.2829 18.4263C23.4098 18.4263 22.702 19.1341 22.702 20.0073C22.702 20.8805 23.4098 21.5883 24.2829 21.5883Z" fill="white"/>
<path fill-rule="evenodd" clip-rule="evenodd" d="M12.5278 1.83301L12.6976 3.14891C13.0404 5.80572 15.3134 7.86944 18.112 7.86944C18.7169 7.86944 19.1572 7.82289 19.6254 7.66679L20.6983 7.30914L20.9436 8.41317C21.1334 9.26679 21.4062 10.063 21.833 10.7458L21.8358 10.7504L21.8387 10.755C23.9454 14.2067 28.4756 15.3245 31.9199 13.2668L33.1133 12.5539L33.4352 13.9062C33.7124 15.0705 33.82 16.2741 33.82 17.4064C33.82 26.3847 26.4783 33.7264 17.5 33.7264C8.52167 33.7264 1.17999 26.3847 1.17999 17.4064C1.17999 10.658 5.31602 4.78328 11.2998 2.33539L12.5278 1.83301ZM10.9691 4.73098C6.33488 7.10851 3.21999 11.9309 3.21999 17.4064C3.21999 25.2581 9.64832 31.6864 17.5 31.6864C25.3517 31.6864 31.78 25.2581 31.78 17.4064C31.78 16.8283 31.7483 16.2399 31.6776 15.6592C27.4903 17.3532 22.5332 15.8035 20.1002 11.8224C19.705 11.189 19.4228 10.5154 19.2139 9.84558C18.8467 9.89463 18.4846 9.90944 18.112 9.90944C14.7554 9.90944 11.9348 7.73561 10.9691 4.73098Z" fill="white"/>
</svg>
