<svg width="40" height="32" viewBox="0 0 40 32" fill="none" xmlns="http://www.w3.org/2000/svg">
<g clip-path="url(#clip0_3_29)">
<path d="M33.5 25.075L26.875 18.5C27.9955 17.1073 28.6045 15.3725 28.6006 13.585L28.6 13.4956V13.5V13.4994C28.6 9.3575 25.2419 5.99937 21.1 5.99937L20.995 6H21C16.8487 6.04187 13.4994 9.41687 13.4994 13.5744L13.5 13.6931V13.6869C13.5 17.8287 16.8581 21.1869 21 21.1869C22.84 21.2407 24.6312 20.5899 26.0075 19.3675L26 19.3744L32.625 25.9994L33.55 25.0744L33.5 25.075ZM21 19.9125C17.5481 19.9125 14.75 17.1144 14.75 13.6625V13.6494C14.75 10.1825 17.5394 7.36687 20.9962 7.325H21C24.4519 7.325 27.25 10.1231 27.25 13.575C27.2431 17.0419 24.4594 19.8562 21.005 19.9125H21Z" fill="#636363"/>
</g>
<defs>
<clipPath id="clip0_3_29">
<rect width="20" height="20" fill="white" transform="translate(13.5 6)"/>
</clipPath>
</defs>
</svg>
