<svg width="144" height="34" viewBox="0 0 144 34" fill="none" xmlns="http://www.w3.org/2000/svg">
<g clip-path="url(#clip0_3_160)">
<g clip-path="url(#clip1_3_160)">
<path d="M87 24.375V11.25H68.25V24.375H74.8125V28.125H72V30H83.25V28.125H80.4375V24.375H87ZM78.5625 28.125H76.6875V24.375H78.5625V28.125ZM70.125 22.5V13.125H85.125V22.5H70.125ZM64.875 22.3125C64.875 23.0625 64.3125 23.625 63.5625 23.625C62.8125 23.625 62.25 23.0625 62.25 22.3125C62.25 21.5625 62.8125 21 63.5625 21C64.3125 21 64.875 21.5625 64.875 22.3125ZM60.75 5.625H66.375V7.5H60.75V5.625ZM68.25 28.125H58.875V1.875H68.25V9.375H70.125V0H57V30H70.125V26.25H68.25V28.125ZM60.75 9.375H66.375V11.25H60.75V9.375Z" fill="black"/>
</g>
</g>
<defs>
<clipPath id="clip0_3_160">
<rect width="30" height="30" fill="white" transform="translate(57)"/>
</clipPath>
<clipPath id="clip1_3_160">
<rect width="30" height="30" fill="white" transform="translate(57)"/>
</clipPath>
</defs>
</svg>
