<svg width="144" height="34" viewBox="0 0 144 34" fill="none" xmlns="http://www.w3.org/2000/svg">
<g clip-path="url(#clip0_3_192)">
<g clip-path="url(#clip1_3_192)">
<path d="M87 14.0625C87 6 80.5313 0 72 0C63.4687 0 57 6.1875 57 14.0625V24.375H58.875V25.0313C58.875 27.75 61.125 30 63.8438 30H65.9062V16.9688H63.8438C61.5 16.9688 59.625 18.5625 59.0625 20.7188V14.0625C59.0625 7.21875 64.6875 1.96875 72.1875 1.96875C79.6875 1.96875 85.125 7.125 85.125 14.0625V20.8125C84.5625 18.6563 82.6875 17.0625 80.3437 17.0625H78.1875V30H80.25C82.9687 30 85.2188 27.75 85.2188 25.0313V24.375H87.0937V14.0625H87ZM60.8437 21.9375C60.8437 20.3437 62.1562 19.0312 63.75 19.0312L63.8438 28.0312H63.75C62.1562 28.0312 60.8437 26.7187 60.8437 25.125V22.0312V21.9375ZM83.1562 25.0313C83.1562 26.625 81.8437 27.9375 80.25 27.9375V18.9375C81.8437 18.9375 83.1562 20.25 83.1562 21.8437V25.0313Z" fill="black"/>
</g>
</g>
<defs>
<clipPath id="clip0_3_192">
<rect width="30" height="30" fill="white" transform="translate(57)"/>
</clipPath>
<clipPath id="clip1_3_192">
<rect width="30" height="30" fill="white" transform="translate(57)"/>
</clipPath>
</defs>
</svg>
