<svg width="32" height="69" viewBox="0 0 32 69" fill="none" xmlns="http://www.w3.org/2000/svg">
<g clip-path="url(#clip0_3_364)">
<path d="M11.5 3.07983V7.97983H13.6V5.27983H29.8V16.0798H26.1V19.0798L22.6 16.1798V18.8798L28.3 23.5798V18.2798H32V3.17983L11.5 3.07983ZM11.5 10.1798H0V25.2798H3.7V30.6798L10.2 25.2798H20.5V10.1798H11.5ZM18.4 12.2798V23.1798H9.5L5.8 26.1798V23.1798H2.1V12.2798H18.4ZM10.2 16.5798C9.6 16.5798 9.1 17.0798 9.1 17.6798C9.1 18.2798 9.6 18.7798 10.2 18.7798C10.8 18.7798 11.3 18.2798 11.3 17.6798C11.3 17.0798 10.8 16.5798 10.2 16.5798ZM13.7 18.2798C13.9 18.5798 14.2 18.8798 14.6 18.8798C15 18.8798 15.3 18.6798 15.5 18.3798C15.6 18.1798 15.7 18.0798 15.7 17.8798C15.7 17.2798 15.2 16.7798 14.6 16.7798C14 16.7798 13.5 17.2798 13.5 17.8798C13.5 18.0798 13.6 18.2798 13.7 18.3798V18.2798ZM6.4 16.6798C6.3 16.6798 6.3 16.6798 6.2 16.6798C6.1 16.6798 6 16.6798 6 16.6798H5.9C5.3 16.6798 4.8 17.1798 4.8 17.7798C4.8 18.3798 5.3 18.8798 5.9 18.8798C6 18.8798 6 18.8798 6.1 18.8798C6.3 18.8798 6.4 18.8798 6.5 18.7798C6.9 18.5798 7.1 18.2798 7.1 17.7798C7.1 17.3798 6.8 16.9798 6.5 16.7798L6.4 16.6798Z" fill="#006BBD"/>
</g>
<defs>
<clipPath id="clip0_3_364">
<rect width="32" height="32" fill="white" transform="translate(0 0.879883)"/>
</clipPath>
</defs>
</svg>
