<svg width="32" height="69" viewBox="0 0 32 69" fill="none" xmlns="http://www.w3.org/2000/svg">
<g clip-path="url(#clip0_3_349)">
<g clip-path="url(#clip1_3_349)">
<path d="M28.9 16.8799L31.2 11.9799L26.4 9.37988L25.4 3.97988H24.8L20 4.67988L16 0.879883L12 4.67988L6.6 3.97988L5.6 9.37988L0.8 11.9799L3.1 16.8799L0.8 21.8799L5.6 24.4799L6.6 29.8799L12 29.1799L16 32.9799L20 29.1799L25.4 29.8799L26.4 24.4799L31.2 21.8799L28.8 16.9799L28.9 16.8799ZM25.4 22.5799L24.5 23.0799L24.3 24.0799L23.7 27.4799L19.3 26.8799L16 29.9799L12.8 26.8799L8.4 27.4799L7.8 24.0799L7.6 23.0799L3.7 20.8799L5.2 17.7799L5.6 16.8799L5.2 15.9799L3.7 12.8799L7.7 10.7799L7.9 9.77988L8.5 6.37988L12.9 6.87988L16.2 3.77988L19.4 6.87988L23.8 6.27988L24.4 9.67988L24.6 10.6799L28.6 12.7799L27.1 15.8799L26.6 16.7799L28.6 20.7799L25.6 22.4799L25.4 22.5799ZM14 19.5799L10.4 16.0799L8.9 17.5799L14 22.5799L23.1 13.4799L21.6 11.9799L14 19.5799Z" fill="#006BBD"/>
</g>
</g>
<defs>
<clipPath id="clip0_3_349">
<rect width="32" height="32" fill="white" transform="translate(0 0.879883)"/>
</clipPath>
<clipPath id="clip1_3_349">
<rect width="32" height="32" fill="white" transform="translate(0 0.879883)"/>
</clipPath>
</defs>
</svg>
