<svg width="32" height="69" viewBox="0 0 32 69" fill="none" xmlns="http://www.w3.org/2000/svg">
<g clip-path="url(#clip0_3_331)">
<g clip-path="url(#clip1_3_331)">
<path d="M16 0.879785C15.9 0.879785 15.7 0.879785 15.5 0.879785C8.9 0.879785 3.5 6.17979 3.4 12.6798V21.3798H4.9V21.6798C4.9 24.0798 6.8 25.9798 9.2 25.9798H11.2V14.7798H9.2C7.6 14.7798 6.3 15.5798 5.6 16.8798V12.5798C5.8 7.17979 10.2 2.87979 15.6 2.87979C15.8 2.87979 15.9 2.87979 16.1 2.87979C16.3 2.87979 16.5 2.87979 16.7 2.87979C22.1 2.87979 26.5 7.17979 26.5 12.5798V16.8798C25.8 15.5798 24.4 14.7798 22.9 14.7798H20.9V25.9798H22.9C24.5 25.9798 25.8 25.1798 26.5 23.8798V27.2798L20 30.6798H17.1V28.7798H15V32.7798H20.6L28.6 28.5798V12.5798C28.5 6.07979 23.1 0.779785 16.6 0.779785C16.4 0.779785 16.2 0.779785 16 0.779785V0.879785ZM7.1 19.1798C7.1 18.0798 8 17.0798 9.1 17.0798V23.9798C8 23.8798 7.1 22.9798 7.1 21.8798V19.1798ZM24.9 21.7798C24.9 22.8798 24 23.8798 22.9 23.8798V16.9798C24 17.0798 24.9 17.9798 24.9 19.0798V21.7798Z" fill="#006BBD"/>
</g>
</g>
<defs>
<clipPath id="clip0_3_331">
<rect width="32" height="32" fill="white" transform="translate(0 0.879883)"/>
</clipPath>
<clipPath id="clip1_3_331">
<rect width="32" height="32" fill="white" transform="translate(0 0.879883)"/>
</clipPath>
</defs>
</svg>
