<svg width="195" height="56" viewBox="0 0 195 56" fill="none" xmlns="http://www.w3.org/2000/svg">
<g clip-path="url(#clip0_3_13)">
<path d="M185.754 31.2914C185.754 29.1605 184.569 28.2143 182.201 27.7404C179.835 27.2682 178.415 27.0295 178.415 25.3742C178.415 24.1911 179.361 23.4802 181.02 23.4802C183.151 23.4802 183.86 24.4263 183.86 25.6111L184.097 25.8481H185.043L185.28 25.6111C185.28 23.2449 183.386 22.297 181.018 22.297C178.413 22.297 176.995 23.7171 176.995 25.3759C176.995 27.2699 178.415 28.2161 180.781 28.69C183.149 29.1639 184.332 29.4009 184.332 31.2949C184.332 32.478 183.623 33.4259 181.255 33.4259C179.124 33.4259 178.178 32.2411 178.178 30.821L177.941 30.584H176.995L176.758 30.821C176.758 32.952 178.415 34.609 181.255 34.609C184.332 34.6055 185.754 33.1855 185.754 31.2914ZM175.575 28.9252L175.81 28.6883V27.9791C175.81 24.665 173.916 22.297 170.602 22.297C167.288 22.297 165.394 24.665 165.394 27.9791V28.4513C165.394 31.7654 167.051 34.6055 170.839 34.6055C174.153 34.6055 175.336 32.4745 175.573 31.0545L175.336 30.8175H174.39L174.153 31.0545C173.679 32.4745 172.733 33.4224 170.839 33.4224C167.76 33.4224 166.814 30.5823 166.814 29.1622L167.051 28.9252H175.575ZM174.154 27.7404H167.052L166.815 27.5034C166.815 25.8464 167.761 23.4802 170.603 23.4802C173.444 23.4802 174.391 25.8464 174.391 27.5034L174.154 27.7404ZM163.738 34.1316V22.7675L163.501 22.5305H162.555L162.318 22.7675V34.1316L162.555 34.3686H163.501L163.738 34.1316ZM163.738 20.4013V18.9812L163.501 18.7442H162.555L162.318 18.9812V20.4013L162.555 20.6383H163.501L163.738 20.4013ZM154.744 33.4224C152.376 33.4224 150.956 31.7654 150.956 28.4513C150.956 25.1372 152.376 23.4802 154.744 23.4802C157.11 23.4802 158.53 25.1372 158.53 28.4513C158.53 31.7636 157.11 33.4224 154.744 33.4224ZM158.53 32.7115C158.53 35.7886 157.819 38.1566 154.979 38.1566C152.848 38.1566 152.139 37.2105 151.902 36.0256L151.665 35.7886H150.719L150.482 36.0256C150.719 37.9196 152.139 39.3397 154.979 39.3397C158.058 39.3397 159.95 37.4457 159.95 32.7115V22.7675L159.713 22.5305H159.002L158.765 22.7675L158.528 24.1893H158.291C157.819 23.2432 156.634 22.2953 154.503 22.2953C151.189 22.2953 149.532 24.9002 149.532 28.4513C149.532 32.0006 151.189 34.6055 154.503 34.6055C156.634 34.6055 157.817 33.6594 158.291 32.7115H158.53ZM143.145 23.4802C145.511 23.4802 147.168 25.3742 147.168 28.4513C147.168 31.5284 145.511 33.4224 143.145 33.4224C140.777 33.4224 139.12 31.5284 139.12 28.4513C139.12 25.3742 140.777 23.4802 143.145 23.4802ZM143.145 34.6055C146.222 34.6055 148.588 32.4745 148.588 28.4513C148.588 24.428 146.222 22.2953 143.145 22.2953C140.066 22.2953 137.699 24.4263 137.699 28.4513C137.699 32.4745 140.067 34.6055 143.145 34.6055ZM136.042 34.1316V18.0351L135.805 17.7981H134.859L134.622 18.0351V34.1333L134.859 34.3703H135.805L136.042 34.1316ZM127.522 23.4802C129.888 23.4802 131.545 25.3742 131.545 28.4513C131.545 31.5284 129.888 33.4224 127.522 33.4224C125.154 33.4224 123.497 31.5284 123.497 28.4513C123.497 25.3742 125.154 23.4802 127.522 23.4802ZM127.522 34.6055C130.599 34.6055 132.967 32.4745 132.967 28.4513C132.967 24.428 130.599 22.2953 127.522 22.2953C124.445 22.2953 122.077 24.4263 122.077 28.4513C122.077 32.4745 124.445 34.6055 127.522 34.6055ZM120.657 34.1316V27.0295C120.657 23.9523 119 22.2953 116.397 22.2953C114.74 22.2953 113.318 23.0062 112.609 24.1893H112.372L112.136 22.7675L111.899 22.5305H111.188L110.951 22.7675V34.1316L111.188 34.3686H112.136L112.372 34.1316V27.7404C112.372 25.1355 113.556 23.4802 116.16 23.4802C118.054 23.4802 119.237 24.6633 119.237 27.0295V34.1316L119.474 34.3686H120.42L120.657 34.1316ZM108.584 34.1316V27.0295C108.584 23.9523 106.926 22.2953 104.323 22.2953C102.666 22.2953 101.246 23.0062 100.535 24.1893H100.298V18.0351L100.061 17.7981H99.1152L98.8782 18.0351V34.1333L99.1152 34.3703H100.061L100.298 34.1333V27.7404C100.298 25.1355 101.483 23.4802 104.086 23.4802C105.98 23.4802 107.163 24.6633 107.163 27.0295V34.1316L107.4 34.3686H108.348L108.584 34.1316ZM88.2268 28.4513C88.2268 25.1372 89.8838 23.4802 92.2501 23.4802C94.6163 23.4802 95.5641 24.9002 95.7994 26.3203L96.0363 26.5573H96.9842L97.2212 26.3203C96.9842 23.9541 95.0902 22.297 92.2501 22.297C89.1729 22.297 86.8067 24.1911 86.8067 28.453C86.8067 32.7133 89.1729 34.6073 92.2501 34.6073C95.0902 34.6073 96.9842 32.9502 97.2212 30.584L96.9842 30.347H96.0363L95.7994 30.584C95.5624 32.0041 94.6163 33.4242 92.2501 33.4242C89.8821 33.4224 88.2268 31.7636 88.2268 28.4513ZM85.6219 28.9252L85.8588 28.6883V27.9791C85.8588 24.665 83.9648 22.297 80.649 22.297C77.3366 22.297 75.4409 24.665 75.4409 27.9791V28.4513C75.4409 31.7654 77.0979 34.6055 80.886 34.6055C84.2001 34.6055 85.3832 32.4745 85.6201 31.0545L85.3832 30.8175H84.437L84.2001 31.0545C83.7279 32.4745 82.78 33.4224 80.886 33.4224C77.8088 33.4224 76.8627 30.5823 76.8627 29.1622L77.0997 28.9252H85.6219ZM84.2018 27.7404H77.0997L76.8627 27.5034C76.8627 25.8464 77.8088 23.4802 80.649 23.4802C83.4909 23.4802 84.437 25.8464 84.437 27.5034L84.2018 27.7404ZM77.8228 18.7442V18.0351L77.5858 17.7981H65.2756L65.0386 18.0351V18.746L65.2756 18.983H70.4837L70.7207 19.2199V34.1333L70.9576 34.3703H71.9038L72.1407 34.1333V19.2182L72.3777 18.9812H77.5858L77.8228 18.7442ZM65.0386 31.0754V34.3686H54.3488V17.7981H58.1125V31.0754H65.0386ZM15.6148 34.3686C19.4707 34.3686 22.7116 31.734 23.6351 28.169L33.0094 35.4924L42.3784 28.1725V34.3686H53.0682V31.0754H46.142V17.7981H42.3784V23.9942L33.3927 31.0144L31.3837 29.4445L35.684 26.0833L40.3676 22.4242L37.6948 20.3333L28.7073 27.3553L26.6983 25.7854L35.684 18.7652L33.0094 16.6742L23.6351 23.9977C22.7116 20.4327 19.4707 17.7981 15.6148 17.7981H8.89771V34.3686H15.6148ZM12.6613 31.0754V21.0913H15.6148C18.1116 21.0913 20.1363 23.3268 20.1363 26.0833C20.1363 28.8398 18.1116 31.0754 15.6148 31.0754H12.6613Z" fill="#0076CE"/>
</g>
<defs>
<clipPath id="clip0_3_13">
<rect width="182" height="23" fill="white" transform="translate(6.5 16.5)"/>
</clipPath>
</defs>
</svg>
