<svg width="32" height="69" viewBox="0 0 32 69" fill="none" xmlns="http://www.w3.org/2000/svg">
<g clip-path="url(#clip0_3_379)">
<g clip-path="url(#clip1_3_379)">
<path d="M32 19.18V14.28L27.9 12.88L27.3 11.48L29.3 7.47998L25.8 3.87998L21.8 5.87998L20.4 5.37998L18.8 0.97998H13.8L12.4 5.37998L11 5.97998L6.6 3.77998L3.1 7.27998L5.4 11.48L4.7 12.98L0.2 14.48V19.38L4.8 20.78L5.4 22.18L3.4 26.48L6.9 29.98L11.1 27.78L12.6 28.48L14 32.88H19.1L20.5 28.38L22 27.78L26.1 29.68L29.6 26.18L27.6 22.18L28 20.78L32.2 19.18H32ZM26.8 25.78L25.4 27.08L21.8 25.48L18.6 26.88L17.4 30.88H15.4L14 26.88L10.7 25.38L6.9 27.38L5.6 26.08L7.5 22.28L6.2 18.98L2.2 17.78V15.88L6.1 14.58L7.7 11.38L5.7 7.57998L7 6.27998L11 8.27998L14.1 6.87998L15.3 2.97998H17.3L18.7 6.97998L22 8.07998L25.5 6.37998L26.8 7.67998L25.1 11.28L26.4 14.48L30 15.68V17.58L26.1 18.98L25.1 22.28L26.8 25.68V25.78ZM16 11.08C12.8 11.08 10.2 13.68 10.2 16.88C10.2 20.08 12.8 22.68 16 22.68C19.2 22.68 21.8 20.08 21.8 16.88C21.8 13.68 19.2 11.08 16 11.08ZM16 20.58C14 20.58 12.4 18.88 12.4 16.88C12.4 14.88 14 13.18 16.1 13.18C18.2 13.18 19.8 14.78 19.8 16.88C19.8 18.88 18.1 20.58 16.1 20.58H16Z" fill="#006BBD"/>
</g>
</g>
<defs>
<clipPath id="clip0_3_379">
<rect width="32" height="32" fill="white" transform="translate(0 0.879883)"/>
</clipPath>
<clipPath id="clip1_3_379">
<rect width="32" height="32" fill="white" transform="translate(0 0.879883)"/>
</clipPath>
</defs>
</svg>
