<svg width="23" height="21" viewBox="0 0 23 21" fill="none" xmlns="http://www.w3.org/2000/svg">
<g clip-path="url(#clip0_3_674)">
<path d="M8.50002 1.72168C6.62812 1.72168 4.83289 2.46529 3.50926 3.78892C2.18563 5.11255 1.44202 6.90778 1.44202 8.77968C1.44202 10.6516 2.18563 12.4468 3.50926 13.7704C4.83289 15.0941 6.62812 15.8377 8.50002 15.8377C10.3719 15.8377 12.1671 15.0941 13.4908 13.7704C14.8144 12.4468 15.558 10.6516 15.558 8.77968C15.558 6.90778 14.8144 5.11255 13.4908 3.78892C12.1671 2.46529 10.3719 1.72168 8.50002 1.72168ZM2.40802 9.24968H4.71202C4.74002 10.0507 4.83402 10.8137 4.99002 11.5127H3.03702C2.6816 10.8067 2.46791 10.0378 2.40802 9.24968ZM8.97102 5.10468V2.80968C9.68602 3.07268 10.319 3.91968 10.753 5.10468H8.97102ZM11.04 6.04668C11.21 6.73868 11.318 7.50468 11.349 8.30868H8.97102V6.04668H11.039H11.04ZM8.03002 2.80968V5.10468H6.24802C6.68302 3.91968 7.31602 3.07268 8.03002 2.80968ZM8.03002 6.04668V8.30868H5.65202C5.68302 7.50468 5.79202 6.73868 5.96202 6.04668H8.03002ZM4.71202 8.30868H2.40802C2.46822 7.52089 2.6819 6.75247 3.03702 6.04668H4.99002C4.83302 6.74668 4.74002 7.50768 4.71202 8.30868ZM5.65202 9.24968H8.03002V11.5127H5.96202C5.78285 10.7707 5.67899 10.0125 5.65202 9.24968ZM8.03002 12.4537V14.7507C7.31502 14.4867 6.68302 13.6387 6.24802 12.4537H8.03002ZM8.97002 14.7507V12.4537H10.753C10.318 13.6397 9.68502 14.4867 8.97002 14.7507ZM8.97002 11.5127V9.24968H11.349C11.318 10.0547 11.209 10.8197 11.039 11.5127H8.97202H8.97002ZM12.29 9.24968H14.594C14.5339 10.0378 14.3203 10.8066 13.965 11.5127H12.012C12.169 10.8127 12.262 10.0507 12.29 9.24968ZM12.29 8.30968C12.2676 7.54837 12.1745 6.79078 12.012 6.04668H13.965C14.312 6.73668 14.531 7.50068 14.593 8.30868H12.29V8.30968ZM13.379 5.10468H11.749C11.489 4.31468 11.147 3.63168 10.741 3.09368C11.7883 3.50911 12.701 4.20487 13.379 5.10468ZM6.26002 3.09468C5.85502 3.63268 5.51302 4.31468 5.25302 5.10468H3.62202C4.30033 4.20538 5.21296 3.51002 6.26002 3.09468ZM3.62202 12.4547H5.25202C5.51202 13.2447 5.85402 13.9267 6.25902 14.4647C5.21222 14.0494 4.29991 13.354 3.62202 12.4547ZM10.741 14.4647C11.146 13.9267 11.489 13.2447 11.748 12.4537H13.378C12.7004 13.3535 11.7881 14.0493 10.741 14.4647Z" fill="#636363"/>
</g>
<defs>
<clipPath id="clip0_3_674">
<rect width="16" height="16" fill="white" transform="translate(0.5 0.779785)"/>
</clipPath>
</defs>
</svg>
