<svg width="21" height="20" viewBox="0 0 21 20" fill="none" xmlns="http://www.w3.org/2000/svg">
<g clip-path="url(#clip0_3_56)">
<g clip-path="url(#clip1_3_56)">
<path d="M8.32004 -2.44007e-07C8.25104 -0.00300024 8.17004 -0.00450024 8.08854 -0.00450024C4.78754 -0.00450024 2.10154 2.631 2.02054 5.9125V10.29H2.79054V10.46C2.79054 10.7397 2.84563 11.0167 2.95267 11.2751C3.05972 11.5335 3.21661 11.7683 3.4144 11.9661C3.61219 12.1639 3.847 12.3208 4.10542 12.4279C4.36385 12.5349 4.64082 12.59 4.92054 12.59H5.92054V7H4.92054C4.55152 7.00198 4.18935 7.09979 3.86951 7.28386C3.54967 7.46792 3.28314 7.73193 3.09604 8.05L3.09054 8.06V5.92C3.17104 3.2215 5.37804 1.0645 8.08854 1.0645C8.17004 1.0645 8.25154 1.0665 8.33204 1.0705L8.32054 1.07C8.40454 1.065 8.50204 1.062 8.60104 1.062C11.2965 1.062 13.4855 3.2295 13.5205 5.9165V8.06C13.3367 7.74411 13.0748 7.48073 12.76 7.29512C12.4452 7.10951 12.0879 7.00789 11.7225 7H10.7205V12.59H11.7205C12.0896 12.588 12.4517 12.4902 12.7716 12.3061C13.0914 12.1221 13.3579 11.8581 13.545 11.54L13.5505 11.53V13.24L10.3205 14.93H8.85054V14H7.79054V16H10.6005L14.6005 13.88V5.88C14.537 2.6155 11.8755 -0.00650024 8.60154 -0.00650024C8.50254 -0.00650024 8.40454 -0.00400024 8.30654 0.000499756L8.32004 -2.44007e-07ZM3.86004 9.13V9.1285C3.86007 8.8583 3.96329 8.59831 4.1486 8.40166C4.3339 8.20502 4.58731 8.08656 4.85704 8.0705H4.86004V11.5205C4.58974 11.5051 4.33558 11.3868 4.14965 11.19C3.96372 10.9932 3.86011 10.7327 3.86004 10.462V10.46V9.13ZM12.78 10.46V10.4615C12.78 10.7317 12.6768 10.9917 12.4915 11.1883C12.3062 11.385 12.0528 11.5034 11.783 11.5195H11.78V8.0695C12.339 8.102 12.78 8.5635 12.78 9.128V9.13V10.46Z" fill="#636363"/>
</g>
</g>
<defs>
<clipPath id="clip0_3_56">
<rect width="16" height="16" fill="white" transform="translate(0.320038)"/>
</clipPath>
<clipPath id="clip1_3_56">
<rect width="16" height="16" fill="white" transform="translate(0.320038)"/>
</clipPath>
</defs>
</svg>
