<svg width="21" height="16" viewBox="0 0 21 16" fill="none" xmlns="http://www.w3.org/2000/svg">
<g clip-path="url(#clip0_3_66)">
<path d="M8.32009 0.942001C6.44819 0.942001 4.65296 1.68561 3.32933 3.00924C2.00569 4.33287 1.26208 6.1281 1.26208 8C1.26208 9.8719 2.00569 11.6671 3.32933 12.9908C4.65296 14.3144 6.44819 15.058 8.32009 15.058C10.192 15.058 11.9872 14.3144 13.3108 12.9908C14.6345 11.6671 15.3781 9.8719 15.3781 8C15.3781 6.1281 14.6345 4.33287 13.3108 3.00924C11.9872 1.68561 10.192 0.942001 8.32009 0.942001ZM2.22808 8.47H4.53208C4.56008 9.271 4.65408 10.034 4.81008 10.733H2.85708C2.50167 10.027 2.28798 9.25817 2.22808 8.47ZM8.79108 4.325V2.03C9.50608 2.293 10.1391 3.14 10.5731 4.325H8.79108ZM10.8601 5.267C11.0301 5.959 11.1381 6.725 11.1691 7.529H8.79108V5.267H10.8591H10.8601ZM7.85009 2.03V4.325H6.06809C6.50309 3.14 7.13609 2.293 7.85009 2.03ZM7.85009 5.267V7.529H5.47208C5.50308 6.725 5.61208 5.959 5.78208 5.267H7.85009ZM4.53208 7.529H2.22808C2.28829 6.74121 2.50197 5.97279 2.85708 5.267H4.81008C4.65308 5.967 4.56008 6.728 4.53208 7.529ZM5.47208 8.47H7.85009V10.733H5.78208C5.60292 9.99101 5.49906 9.23284 5.47208 8.47ZM7.85009 11.674V13.971C7.13509 13.707 6.50309 12.859 6.06809 11.674H7.85009ZM8.79009 13.971V11.674H10.5731C10.1381 12.86 9.50509 13.707 8.79009 13.971ZM8.79009 10.733V8.47H11.1691C11.1381 9.275 11.0291 10.04 10.8591 10.733H8.79209H8.79009ZM12.1101 8.47H14.4141C14.354 9.25814 14.1403 10.0269 13.7851 10.733H11.8321C11.9891 10.033 12.0821 9.271 12.1101 8.47ZM12.1101 7.53C12.0877 6.76869 11.9946 6.0111 11.8321 5.267H13.7851C14.1321 5.957 14.3511 6.721 14.4131 7.529H12.1101V7.53ZM13.1991 4.325H11.5691C11.3091 3.535 10.9671 2.852 10.5611 2.314C11.6084 2.72943 12.5211 3.42519 13.1991 4.325ZM6.08009 2.315C5.67509 2.853 5.33308 3.535 5.07308 4.325H3.44209C4.1204 3.42571 5.03302 2.73034 6.08009 2.315ZM3.44209 11.675H5.07208C5.33208 12.465 5.67408 13.147 6.07908 13.685C5.03229 13.2697 4.11998 12.5743 3.44209 11.675ZM10.5611 13.685C10.9661 13.147 11.3091 12.465 11.5681 11.674H13.1981C12.5205 12.5738 11.6081 13.2696 10.5611 13.685Z" fill="#636363"/>
</g>
<defs>
<clipPath id="clip0_3_66">
<rect width="16" height="16" fill="white" transform="translate(0.320068)"/>
</clipPath>
</defs>
</svg>
