<svg width="25" height="16" viewBox="0 0 25 16" fill="none" xmlns="http://www.w3.org/2000/svg">
<g clip-path="url(#clip0_3_85)">
<path d="M16.1201 3.09H3.00006L2.12006 0.32H0.120056V1.39H1.29006L4.60006 12.8H13.4501V11.73H5.45006L4.92006 9.92H14.7301L16.1201 3.09ZM4.60006 8.85L3.21006 4.16H14.7301L13.7301 8.85H4.60006Z" fill="#707070"/>
<path d="M12.71 12.05C12.471 12.049 12.233 12.095 12.012 12.186C11.6786 12.323 11.3936 12.5565 11.1937 12.8566C10.9938 13.1566 10.8881 13.5095 10.89 13.87C10.8799 14.1113 10.9201 14.3521 11.008 14.577C11.096 14.802 11.23 15.006 11.401 15.176C11.5723 15.3462 11.7771 15.479 12.0025 15.5657C12.2279 15.6525 12.4688 15.6914 12.71 15.68C12.9504 15.6899 13.1901 15.6498 13.4142 15.5624C13.6383 15.4749 13.8418 15.3419 14.0119 15.1718C14.182 15.0017 14.3149 14.7982 14.4024 14.5742C14.4899 14.3501 14.5299 14.1103 14.52 13.87C14.5227 13.6311 14.4778 13.3941 14.3879 13.1727C14.298 12.9513 14.1649 12.7501 13.9964 12.5807C13.828 12.4113 13.6275 12.2771 13.4066 12.186C13.1857 12.0949 12.949 12.0487 12.71 12.05ZM12.71 14.61C12.561 14.6119 12.4147 14.5693 12.2899 14.4876C12.1652 14.406 12.0676 14.289 12.0096 14.1516C11.9517 14.0142 11.936 13.8627 11.9645 13.7163C11.9931 13.57 12.0647 13.4355 12.17 13.33C12.2755 13.2246 12.41 13.1531 12.5564 13.1245C12.7027 13.0959 12.8542 13.1116 12.9916 13.1696C13.129 13.2275 13.246 13.3251 13.3276 13.4499C13.4093 13.5746 13.4519 13.7209 13.45 13.87C13.4514 13.9676 13.4332 14.0644 13.3965 14.1548C13.3597 14.2452 13.3053 14.3273 13.2363 14.3963C13.1673 14.4652 13.0852 14.5197 12.9948 14.5564C12.9044 14.5931 12.8076 14.6113 12.71 14.61ZM5.24004 12.05C5.00113 12.0487 4.76434 12.0949 4.54348 12.186C4.32262 12.2771 4.12211 12.4113 3.95364 12.5807C3.78516 12.7501 3.6521 12.9513 3.56221 13.1727C3.47231 13.3941 3.42738 13.6311 3.43004 13.87C3.41863 14.1107 3.45763 14.3512 3.54455 14.5759C3.63148 14.8007 3.7644 15.0048 3.93481 15.1752C4.10521 15.3456 4.30934 15.4786 4.53411 15.5655C4.75887 15.6524 4.99932 15.6914 5.24004 15.68C5.48076 15.6914 5.72121 15.6524 5.94598 15.5655C6.17075 15.4786 6.37487 15.3456 6.54528 15.1752C6.71568 15.0048 6.84861 14.8007 6.93553 14.5759C7.02245 14.3512 7.06146 14.1107 7.05004 13.87C7.0527 13.6311 7.00777 13.3941 6.91788 13.1727C6.82798 12.9513 6.69492 12.7501 6.52645 12.5807C6.35797 12.4113 6.15746 12.2771 5.9366 12.186C5.71574 12.0949 5.47895 12.0487 5.24004 12.05ZM5.24004 14.61C5.09123 14.6101 4.94576 14.5659 4.82215 14.483C4.69853 14.4002 4.60235 14.2824 4.54584 14.1448C4.48934 14.0071 4.47507 13.8557 4.50484 13.7099C4.53462 13.5641 4.60709 13.4305 4.71304 13.326C4.81893 13.2214 4.95354 13.1507 5.09974 13.1228C5.24594 13.095 5.39713 13.1112 5.53405 13.1696C5.67098 13.2279 5.78746 13.3257 5.86866 13.4504C5.94986 13.5751 5.99211 13.7212 5.99004 13.87C5.99143 13.9684 5.9729 14.0661 5.93557 14.1572C5.89824 14.2482 5.84289 14.3308 5.77283 14.3999C5.70277 14.469 5.61946 14.5233 5.5279 14.5594C5.43634 14.5955 5.33842 14.6127 5.24004 14.61Z" fill="#707070"/>
</g>
<defs>
<clipPath id="clip0_3_85">
<rect width="16" height="16" fill="white" transform="translate(0.120056)"/>
</clipPath>
</defs>
</svg>
