<svg width="25" height="16" viewBox="0 0 25 16" fill="none" xmlns="http://www.w3.org/2000/svg">
<g clip-path="url(#clip0_3_47)">
<path d="M16.04 16H0.0400391L0.150039 15.46C0.150039 15.25 0.670039 11.06 3.83004 8.91L4.15004 8.7L4.46004 8.91C5.44431 9.78123 6.70894 10.2696 8.02331 10.2862C9.33767 10.3027 10.6142 9.84621 11.62 9L11.93 8.79L12.25 9C15.51 11.15 15.93 15.34 15.93 15.55L16.04 16ZM1.20004 14.93H14.78C14.4122 13.0127 13.408 11.2756 11.93 10C10.7835 10.8333 9.40246 11.2822 7.98504 11.2822C6.56762 11.2822 5.18661 10.8333 4.04004 10C2.60371 11.308 1.61097 13.0313 1.20004 14.93ZM8.04004 5.22978e-08C7.3731 -0.000101507 6.71445 0.147716 6.11151 0.432804C5.50858 0.717892 4.97638 1.13315 4.55325 1.64868C4.13012 2.1642 3.82659 2.76715 3.66453 3.4141C3.50247 4.06105 3.48591 4.73588 3.61604 5.39C3.79003 6.26499 4.21962 7.06872 4.85046 7.69953C5.4813 8.33034 6.28505 8.75988 7.16005 8.93383C8.03504 9.10778 8.94198 9.01832 9.76612 8.67677C10.5903 8.33521 11.2946 7.75691 11.79 7.015C12.2436 6.33593 12.5043 5.54646 12.5443 4.73082C12.5843 3.91518 12.402 3.104 12.0171 2.38382C11.6321 1.66365 11.0588 1.06152 10.3584 0.64168C9.65793 0.221845 8.85666 6.22145e-05 8.04004 5.22978e-08ZM8.04004 7.94C7.35895 7.94181 6.69265 7.74139 6.12558 7.36415C5.5585 6.9869 5.11617 6.44982 4.85464 5.82094C4.59311 5.19206 4.52414 4.4997 4.65649 3.83159C4.78883 3.16348 5.11652 2.54969 5.59804 2.068C6.07973 1.58648 6.69352 1.25879 7.36163 1.12645C8.02974 0.994105 8.7221 1.06307 9.35098 1.3246C9.97985 1.58613 10.5169 2.02846 10.8942 2.59554C11.2714 3.16261 11.4718 3.82891 11.47 4.51C11.4674 5.41888 11.1052 6.28978 10.4625 6.93246C9.81982 7.57514 8.94892 7.93736 8.04004 7.94Z" fill="#707070"/>
</g>
<defs>
<clipPath id="clip0_3_47">
<rect width="16" height="16" fill="white" transform="translate(0.0400391)"/>
</clipPath>
</defs>
</svg>
